<?xml version="1.0" encoding="UTF-8" standalone="no"?>
<!-- Created with Inkscape (http://www.inkscape.org/) -->

<svg xmlns:dc="http://purl.org/dc/elements/1.1/" xmlns:cc="http://creativecommons.org/ns#" xmlns:rdf="http://www.w3.org/1999/02/22-rdf-syntax-ns#" xmlns:svg="http://www.w3.org/2000/svg" xmlns="http://www.w3.org/2000/svg" xmlns:sodipodi="http://sodipodi.sourceforge.net/DTD/sodipodi-0.dtd" xmlns:inkscape="http://www.inkscape.org/namespaces/inkscape" width="646" height="250" id="svg8502" version="1.1" inkscape:version="0.91 r13725" sodipodi:docname="get-it-on-github.svg" inkscape:export-filename="/home/nixdorf/Lokaler Speicher/Build/andOTP/assets/badges/get-it-on-github.png" inkscape:export-xdpi="90" inkscape:export-ydpi="90">
  <defs id="defs8504" />
  <sodipodi:namedview id="base" pagecolor="#ffffff" bordercolor="#666666" borderopacity="1.0" inkscape:pageopacity="0.0" inkscape:pageshadow="2" inkscape:zoom="0.50000001" inkscape:cx="-223.13537" inkscape:cy="546.37524" inkscape:document-units="px" inkscape:current-layer="layer1" showgrid="true" fit-margin-top="0" fit-margin-left="0" fit-margin-right="0" fit-margin-bottom="0" inkscape:window-width="1920" inkscape:window-height="1021" inkscape:window-x="0" inkscape:window-y="31" inkscape:window-maximized="1" />
  <metadata id="metadata8507">
    <rdf:RDF>
      <cc:Work rdf:about="">
        <dc:format>image/svg+xml</dc:format>
        <dc:type rdf:resource="http://purl.org/dc/dcmitype/StillImage" />
        <dc:title />
        <dc:creator>
          <cc:Agent>
            <dc:title>Andrew Nayenko</dc:title>
          </cc:Agent>
        </dc:creator>
        <dc:publisher>
          <cc:Agent>
            <dc:title>https://f-droid.org</dc:title>
          </cc:Agent>
        </dc:publisher>
        <cc:license rdf:resource="http://creativecommons.org/licenses/by-sa/3.0/" />
        <dc:contributor>
          <cc:Agent>
            <dc:title />
          </cc:Agent>
        </dc:contributor>
      </cc:Work>
      <cc:License rdf:about="http://creativecommons.org/licenses/by-sa/3.0/">
        <cc:permits rdf:resource="http://creativecommons.org/ns#Reproduction" />
        <cc:permits rdf:resource="http://creativecommons.org/ns#Distribution" />
        <cc:requires rdf:resource="http://creativecommons.org/ns#Notice" />
        <cc:requires rdf:resource="http://creativecommons.org/ns#Attribution" />
        <cc:permits rdf:resource="http://creativecommons.org/ns#DerivativeWorks" />
        <cc:requires rdf:resource="http://creativecommons.org/ns#ShareAlike" />
      </cc:License>
    </rdf:RDF>
  </metadata>
  <g inkscape:label="Layer 1" inkscape:groupmode="layer" id="layer1" transform="translate(-289,-312.36218)">
    <rect style="color:#000000;display:inline;overflow:visible;visibility:visible;fill:#000000;fill-opacity:1;fill-rule:nonzero;stroke:#a6a6a6;stroke-width:4;stroke-miterlimit:4;stroke-dasharray:none;stroke-opacity:1;marker:none;enable-background:accumulate" id="rect3007" width="560" height="164" x="332" y="355.36218" rx="20" ry="20" />
    <g id="text3013" transform="translate(312.4,341.6) scale(2.2)">
      <path id="text3013-path" xmlns="http://www.w3.org/2000/svg" fill="white" d="M88.9 15.9L88.9 14.7L103.1 14.7L103.1 15.9L88.9 15.9ZM95.1 28.3L95.1 15.7L96.3 15.7L96.3 28.3L95.1 28.3ZM95.7 19.5L95.7 19.5L96.5 18.6Q97.3 18.9 98.1 19.3Q98.9 19.8 99.6 20.2Q100.4 20.7 101.1 21.1Q101.8 21.5 102.3 21.9L102.3 21.9L101.4 23Q101.0 22.6 100.3 22.2Q99.6 21.7 98.9 21.2Q98.1 20.8 97.3 20.3Q96.5 19.9 95.7 19.5ZM115.8 14.5L115.8 14.5L116.6 13.9Q117.0 14.2 117.4 14.5Q117.8 14.9 118.1 15.3Q118.4 15.6 118.6 15.9L118.6 15.9L117.7 16.6Q117.5 16.1 116.9 15.5Q116.3 14.9 115.8 14.5ZM104.9 18.2L104.9 17.2L119.2 17.2L119.2 18.2L104.9 18.2ZM105.7 15.8L105.7 14.8L112.7 14.8L112.7 15.8L105.7 15.8ZM108.7 17.7L108.7 13.5L109.9 13.5L109.9 17.7L108.7 17.7ZM113.7 13.6L113.7 13.6L114.9 13.6Q114.9 15.9 115.0 17.9Q115.1 19.9 115.4 21.6Q115.6 23.3 116.0 24.5Q116.3 25.7 116.8 26.3Q117.2 27.0 117.8 27.0L117.8 27.0Q118.1 27.0 118.2 26.4Q118.4 25.8 118.5 24.4L118.5 24.4Q118.6 24.6 118.9 24.8Q119.2 24.9 119.4 25.0L119.4 25.0Q119.3 26.2 119.1 26.9Q118.9 27.6 118.6 27.9Q118.3 28.2 117.7 28.2L117.7 28.2Q116.9 28.2 116.4 27.6Q115.8 27.1 115.3 26.1Q114.9 25.2 114.6 23.8Q114.3 22.5 114.1 20.9Q113.9 19.3 113.8 17.4Q113.7 15.6 113.7 13.6ZM117.4 19.0L117.4 19.0L118.5 19.3Q118.0 21.1 117.2 22.8Q116.4 24.5 115.3 25.9Q114.3 27.3 113.0 28.3L113.0 28.3Q112.8 28.1 112.6 27.9Q112.3 27.7 112.1 27.5L112.1 27.5Q113.4 26.6 114.4 25.2Q115.4 23.9 116.2 22.3Q116.9 20.7 117.4 19.0ZM105.1 20.7L105.1 19.8L113.3 19.8L113.3 20.7L105.1 20.7ZM109.3 28.2L109.3 21.2L110.4 21.2L110.4 28.2L109.3 28.2ZM105.9 23.8L105.9 23.8Q105.9 23.7 105.8 23.5Q105.8 23.3 105.7 23.1Q105.6 22.8 105.6 22.7L105.6 22.7Q105.8 22.6 105.9 22.4Q106.1 22.2 106.3 21.9L106.3 21.9Q106.4 21.7 106.7 21.1Q107.0 20.5 107.4 19.8Q107.7 19.0 108.0 18.2L108.0 18.2L109.1 18.5Q108.8 19.4 108.4 20.2Q108.0 21.1 107.6 21.8Q107.1 22.6 106.7 23.2L106.7 23.2L106.7 23.2Q106.7 23.2 106.6 23.3Q106.4 23.3 106.3 23.4Q106.2 23.5 106.0 23.6Q105.9 23.7 105.9 23.8ZM105.9 23.8L105.9 23.8L105.9 22.9L106.6 22.5L113.0 22.5L113.0 23.6L107.2 23.6Q106.7 23.6 106.4 23.6Q106.0 23.7 105.9 23.8ZM105.2 26.6L105.0 25.5Q106.0 25.4 107.4 25.3Q108.8 25.2 110.3 25.1Q111.8 25.0 113.4 24.8L113.4 24.8L113.4 25.8Q111.9 26.0 110.4 26.1Q108.9 26.3 107.6 26.4Q106.2 26.5 105.2 26.6L105.2 26.6ZM122.5 16.8L122.5 15.6L135.1 15.6L135.1 16.8L122.5 16.8ZM121.9 20.0L121.9 15.6L123.2 15.6L123.2 20.0Q123.2 20.9 123.1 22.0Q123.0 23.1 122.9 24.2Q122.7 25.4 122.4 26.4Q122.1 27.5 121.6 28.4L121.6 28.4Q121.5 28.3 121.3 28.2Q121.1 28.0 120.9 27.9Q120.7 27.8 120.6 27.7L120.6 27.7Q121.0 26.9 121.3 25.9Q121.6 24.9 121.7 23.9Q121.9 22.8 121.9 21.8Q121.9 20.8 121.9 20.0L121.9 20.0ZM127.5 13.8L127.5 13.8L128.7 13.4Q129.0 14.0 129.2 14.6Q129.5 15.2 129.7 15.6L129.7 15.6L128.5 16.0Q128.3 15.5 128.0 14.9Q127.8 14.3 127.5 13.8ZM124.2 19.2L124.2 19.2L125.3 18.7Q125.6 19.6 126.0 20.6Q126.3 21.6 126.6 22.5Q126.9 23.4 127.1 24.2L127.1 24.2L126.0 24.7Q125.8 23.9 125.5 23.0Q125.2 22.0 124.9 21.0Q124.5 20.0 124.2 19.2ZM127.7 18.3L127.7 18.3L128.8 18.0Q129.1 18.8 129.3 19.8Q129.6 20.8 129.8 21.7Q130.1 22.7 130.2 23.4L130.2 23.4L129.0 23.8Q128.9 23.0 128.7 22.1Q128.5 21.1 128.2 20.1Q128.0 19.1 127.7 18.3ZM133.1 17.9L133.1 17.9L134.4 18.3Q133.9 19.8 133.3 21.4Q132.7 23.0 132.0 24.5Q131.2 26.0 130.4 27.3L130.4 27.3Q130.2 27.2 130.0 26.9Q129.8 26.7 129.6 26.6L129.6 26.6Q130.4 25.3 131.1 23.8Q131.8 22.4 132.3 20.8Q132.8 19.3 133.1 17.9ZM123.3 27.5L123.3 26.4L135.3 26.4L135.3 27.5L123.3 27.5ZM139.1 15.8L139.1 14.7L149.5 14.7L149.5 15.8L139.1 15.8ZM139.1 19.5L139.1 18.4L149.5 18.4L149.5 19.5L139.1 19.5ZM139.0 23.4L139.0 22.2L149.5 22.2L149.5 23.4L139.0 23.4ZM138.4 20.5L138.4 14.7L139.6 14.7L139.6 20.5Q139.6 21.4 139.6 22.4Q139.5 23.5 139.3 24.5Q139.0 25.6 138.6 26.6Q138.2 27.6 137.4 28.4L137.4 28.4Q137.4 28.2 137.2 28.1Q137.0 27.9 136.8 27.8Q136.7 27.6 136.5 27.6L136.5 27.6Q137.2 26.8 137.6 25.9Q138.0 25.1 138.1 24.1Q138.3 23.2 138.4 22.3Q138.4 21.3 138.4 20.5L138.4 20.5ZM149.0 26.6L149.0 14.7L150.2 14.7L150.2 26.6Q150.2 27.2 150.0 27.5Q149.9 27.8 149.5 28.0L149.5 28.0Q149.1 28.1 148.3 28.2Q147.6 28.2 146.5 28.2L146.5 28.2Q146.4 28.0 146.3 27.6Q146.2 27.3 146.1 27.0L146.1 27.0Q146.6 27.0 147.1 27.1Q147.7 27.1 148.0 27.1Q148.4 27.0 148.6 27.0L148.6 27.0Q148.8 27.0 148.9 27.0Q149.0 26.9 149.0 26.6L149.0 26.6ZM143.5 28.1L143.5 15.1L144.7 15.1L144.7 28.1L143.5 28.1ZM158.7 24.0L158.7 24.0L158.3 23.1Q159.3 22.7 159.8 22.1Q160.4 21.5 160.4 20.6L160.4 20.6L160.1 19.2L160.9 20.5Q160.8 20.7 160.5 20.7Q160.3 20.8 160.1 20.8L160.1 20.8Q159.6 20.8 159.2 20.5Q158.9 20.2 158.9 19.7L158.9 19.7Q158.9 19.1 159.2 18.8Q159.6 18.5 160.1 18.5L160.1 18.5Q160.8 18.5 161.1 19.0Q161.5 19.5 161.5 20.4L161.5 20.4Q161.5 21.7 160.7 22.6Q160.0 23.5 158.7 24.0ZM169.7 14.6L169.7 14.6L170.5 13.9Q170.9 14.3 171.4 14.7Q171.8 15.1 172.3 15.5Q172.7 16.0 172.9 16.3L172.9 16.3L172.1 17.1Q171.9 16.8 171.4 16.4Q171.0 15.9 170.6 15.5Q170.1 15.0 169.7 14.6ZM170.9 28.0L170.9 28.0L170.7 26.9L171.0 26.3L173.9 24.2Q174.0 24.5 174.1 24.8Q174.2 25.1 174.3 25.2L174.3 25.2Q173.3 26.0 172.7 26.5Q172.0 27.0 171.7 27.3Q171.3 27.5 171.2 27.7Q171.0 27.9 170.9 28.0ZM168.7 19.7L168.7 18.6L171.8 18.6L171.8 19.7L168.7 19.7ZM170.9 28.0L170.9 28.0Q170.9 27.8 170.8 27.6Q170.7 27.4 170.5 27.3Q170.4 27.1 170.3 27.0L170.3 27.0Q170.5 26.8 170.8 26.5Q171.1 26.1 171.1 25.6L171.1 25.6L171.1 18.6L172.2 18.6L172.2 26.6Q172.2 26.6 172.0 26.8Q171.8 26.9 171.6 27.1Q171.3 27.4 171.1 27.6Q170.9 27.8 170.9 28.0ZM175.6 23.6L175.6 22.8L181.2 22.8L181.2 23.6L175.6 23.6ZM174.1 15.7L174.1 14.8L182.9 14.8L182.9 15.7L174.1 15.7ZM174.5 17.6L174.5 16.8L182.4 16.8L182.4 17.6L174.5 17.6ZM173.6 19.7L173.6 18.7L183.4 18.7L183.4 19.7L173.6 19.7ZM175.6 25.8L175.6 24.9L181.3 24.9L181.3 25.8L175.6 25.8ZM174.8 28.3L174.8 20.6L181.3 20.6L181.3 21.5L175.9 21.5L175.9 28.3L174.8 28.3ZM180.9 26.9L180.9 20.6L182.1 20.6L182.1 26.9Q182.1 27.4 182.0 27.6Q181.8 27.9 181.5 28.0L181.5 28.0Q181.2 28.2 180.6 28.2Q180.0 28.2 179.2 28.2L179.2 28.2Q179.2 28.0 179.0 27.7Q178.9 27.4 178.8 27.2L178.8 27.2Q179.4 27.2 180.0 27.2Q180.5 27.2 180.6 27.2L180.6 27.2Q180.9 27.2 180.9 26.9L180.9 26.9ZM177.8 19.0L177.8 13.6L179.0 13.6L179.0 19.0L177.8 19.0ZM185.6 23.0L185.6 21.9L193.0 21.9L193.0 23.0L185.6 23.0ZM188.7 26.4L188.7 20.2L189.8 20.2L189.8 26.4L188.7 26.4ZM185.3 27.5L185.0 26.3Q186 26.2 187.3 25.9Q188.7 25.7 190.2 25.4Q191.7 25.1 193.2 24.9L193.2 24.9L193.3 25.9Q191.8 26.2 190.4 26.5Q189.0 26.8 187.6 27.0Q186.3 27.3 185.3 27.5L185.3 27.5ZM185.1 15.7L185.1 14.6L193.4 14.6L193.4 15.7L185.1 15.7ZM190.1 16.7L190.1 16.7L190.9 16.2Q191.4 16.7 191.9 17.4Q192.3 18.0 192.7 18.6Q193.1 19.2 193.4 19.6L193.4 19.6L192.4 20.2Q192.2 19.8 191.8 19.2Q191.4 18.6 191.0 17.9Q190.5 17.3 190.1 16.7ZM194.3 24.6L194.3 14.9L195.4 14.9L195.4 24.6L194.3 24.6ZM197.4 26.4L197.4 13.8L198.6 13.8L198.6 26.4Q198.6 27.0 198.4 27.3Q198.3 27.6 197.9 27.7L197.9 27.7Q197.6 27.8 196.9 27.9Q196.3 27.9 195.4 27.9L195.4 27.9Q195.4 27.7 195.3 27.3Q195.1 27.0 195.0 26.7L195.0 26.7Q195.7 26.8 196.3 26.8Q196.9 26.8 197.1 26.8L197.1 26.8Q197.3 26.8 197.4 26.7Q197.4 26.6 197.4 26.4L197.4 26.4ZM185.9 20.0L185.9 20.0Q185.9 19.8 185.8 19.6Q185.7 19.4 185.7 19.2Q185.6 19 185.5 18.8L185.5 18.8Q185.7 18.8 185.9 18.6Q186.1 18.4 186.3 18.1L186.3 18.1Q186.4 17.9 186.7 17.4Q187.1 16.9 187.4 16.3Q187.7 15.6 188.0 14.9L188.0 14.9L189.2 15.4Q188.8 16.1 188.4 16.8Q188 17.5 187.5 18.2Q187.1 18.8 186.6 19.3L186.6 19.3L186.6 19.4Q186.6 19.4 186.5 19.4Q186.4 19.5 186.3 19.6Q186.1 19.7 186.0 19.8Q185.9 19.9 185.9 20.0ZM185.9 20.0L185.9 20.0L185.9 19.1L186.5 18.7L191.9 18.3Q192 18.5 192.1 18.8Q192.3 19.0 192.4 19.2L192.4 19.2Q190.8 19.4 189.7 19.5Q188.5 19.6 187.9 19.7Q187.2 19.7 186.8 19.8Q186.4 19.8 186.2 19.9Q186.0 19.9 185.9 20.0Z "/>
    </g>
    <text xml:space="preserve" style="color:black;font-style:normal;font-variant:normal;font-weight:bold;font-stretch:normal;font-size:29.70882034px;line-height:100%;font-family:Rokkitt;-inkscape-font-specification:'Rokkitt Bold';text-align:start;letter-spacing:0px;word-spacing:0px;writing-mode:lr-tb;text-anchor:start;display:inline;overflow:visible;visibility:visible;fill:white;fill-opacity:1;fill-rule:nonzero;stroke:none;stroke-width:1px;marker:none;enable-background:accumulate" x="508.21259" y="489.36108" id="text5902" sodipodi:linespacing="100%"><tspan sodipodi:role="line" id="tspan5904" x="508.21259" y="489.36108" style="font-style:normal;font-variant:normal;font-weight:bold;font-stretch:normal;font-size:87.5px;line-height:100%;font-family:'Roboto Slab';-inkscape-font-specification:'Roboto Slab Bold';text-align:start;writing-mode:lr-tb;text-anchor:start;fill:white;fill-opacity:1">GitHub</tspan></text>
    <g transform="matrix(1.0017681,0,0,1.0017681,68.770756,92.660249)" id="g5136">
      <path style="fill:white;fill-opacity:1;fill-rule:evenodd;stroke:none" d="m 350.60937,282.4375 c -33.34765,0 -60.38671,27.03516 -60.38671,60.38672 0,26.67969 17.30078,49.3164 41.29687,57.30078 3.01563,0.55859 4.125,-1.30859 4.125,-2.90625 0,-1.4375 -0.0547,-6.19531 -0.082,-11.24219 -16.80078,3.65235 -20.34375,-7.125 -20.34375,-7.125 -2.75,-6.98047 -6.70703,-8.83594 -6.70703,-8.83594 -5.48047,-3.74609 0.41406,-3.67187 0.41406,-3.67187 6.0625,0.42578 9.25781,6.22266 9.25781,6.22266 5.38282,9.23437 14.125,6.5664 17.57032,5.02343 0.54296,-3.90234 2.10937,-6.57031 3.83593,-8.07812 -13.41406,-1.52735 -27.51562,-6.70313 -27.51562,-29.84375 0,-6.59375 2.35937,-11.98047 6.22265,-16.20703 -0.625,-1.52344 -2.6914,-7.66407 0.58594,-15.98047 0,0 5.07031,-1.625 16.60938,6.1875 4.82031,-1.33594 9.98437,-2.00781 15.11718,-2.03125 5.13282,0.0234 10.30079,0.69531 15.12891,2.03125 11.52344,-7.8125 16.58984,-6.1875 16.58984,-6.1875 3.28516,8.3164 1.21875,14.45703 0.58985,15.98047 3.87109,4.22656 6.21484,9.61328 6.21484,16.20703 0,23.19531 -14.125,28.30078 -27.57422,29.79687 2.16797,1.875 4.09766,5.55078 4.09766,11.1836 0,8.07812 -0.0703,14.58203 -0.0703,16.57031 0,1.60937 1.08593,3.49219 4.14843,2.89844 23.98047,-7.9961 41.26172,-30.6211 41.26172,-57.29297 0,-33.35156 -27.03515,-60.38672 -60.38672,-60.38672" id="path4937" inkscape:connector-curvature="0" />
      <path style="fill:white;fill-opacity:1;fill-rule:nonzero;stroke:none" d="m 313.09375,369.14062 c -0.13281,0.30079 -0.60547,0.38672 -1.03516,0.1836 -0.4375,-0.19922 -0.68359,-0.60547 -0.54297,-0.91016 0.12891,-0.30859 0.60157,-0.39062 1.03907,-0.1875 0.4414,0.19922 0.6914,0.61328 0.53906,0.91406" id="path4939" inkscape:connector-curvature="0" />
      <path style="fill:white;fill-opacity:1;fill-rule:nonzero;stroke:none" d="m 315.53906,371.86719 c -0.28906,0.26562 -0.85156,0.14453 -1.23437,-0.27735 -0.39453,-0.42187 -0.46875,-0.98437 -0.17578,-1.25781 0.29687,-0.26562 0.84375,-0.14062 1.23828,0.28125 0.39453,0.42578 0.47265,0.98438 0.17187,1.25391" id="path4941" inkscape:connector-curvature="0" />
      <path style="fill:white;fill-opacity:1;fill-rule:nonzero;stroke:none" d="m 317.92187,375.34375 c -0.37109,0.25781 -0.97656,0.0156 -1.35156,-0.51953 -0.37109,-0.53906 -0.37109,-1.17969 0.008,-1.4375 0.375,-0.25781 0.97266,-0.0274 1.35157,0.5039 0.36718,0.54688 0.36718,1.19141 -0.008,1.45313" id="path4943" inkscape:connector-curvature="0" />
      <path style="fill:white;fill-opacity:1;fill-rule:nonzero;stroke:none" d="m 321.18359,378.70312 c -0.33203,0.36719 -1.03906,0.26954 -1.55468,-0.23046 -0.52735,-0.48438 -0.67579,-1.17579 -0.34375,-1.54297 0.33593,-0.36328 1.04687,-0.26172 1.5664,0.23047 0.52344,0.48828 0.6836,1.18359 0.33203,1.54296" id="path4945-3" inkscape:connector-curvature="0" />
      <path style="fill:white;fill-opacity:1;fill-rule:nonzero;stroke:none" d="m 325.68359,380.65625 c -0.14843,0.47266 -0.82812,0.6875 -1.51172,0.48828 -0.68359,-0.20703 -1.1289,-0.76172 -0.99218,-1.24219 0.14453,-0.47265 0.82422,-0.69922 1.51562,-0.48437 0.67969,0.20703 1.12891,0.75781 0.98828,1.23828" id="path4947-6" inkscape:connector-curvature="0" />
      <path style="fill:white;fill-opacity:1;fill-rule:nonzero;stroke:none" d="m 330.625,381.01953 c 0.0156,0.49609 -0.5625,0.91016 -1.28125,0.91797 -0.72266,0.0156 -1.30859,-0.38672 -1.31641,-0.875 0,-0.50391 0.57032,-0.91406 1.28907,-0.92578 0.71875,-0.0156 1.30859,0.38672 1.30859,0.88281" id="path4949" inkscape:connector-curvature="0" />
      <path style="fill:white;fill-opacity:1;fill-rule:nonzero;stroke:none" d="m 335.22266,380.23437 c 0.0859,0.48829 -0.41407,0.98438 -1.125,1.11719 -0.70313,0.12891 -1.35157,-0.17187 -1.44141,-0.65234 -0.0859,-0.5 0.42187,-0.9961 1.12109,-1.125 0.71485,-0.125 1.35547,0.16797 1.44532,0.66015" id="path4951-7" inkscape:connector-curvature="0" />
    </g>
  </g>
</svg>
